<?xml version="1.0" standalone="no"?>
<!DOCTYPE svg PUBLIC "-//W3C//DTD SVG 20010904//EN"
 "http://www.w3.org/TR/2001/REC-SVG-20010904/DTD/svg10.dtd">
<svg version="1.0" xmlns="http://www.w3.org/2000/svg"
 width="2400.000000pt" height="2293.000000pt" viewBox="0 0 2400.000000 2293.000000"
 preserveAspectRatio="xMidYMid meet">

<g transform="translate(0.000000,2293.000000) scale(0.100000,-0.100000)"
fill="#5b5d7a" stroke="none">
<path d="M5905 19109 c-382 -47 -702 -168 -955 -363 -280 -215 -473 -474 -580
-781 -109 -313 -121 -744 -30 -1090 143 -543 604 -1010 1155 -1170 232 -67
371 -85 660 -85 247 0 391 14 570 57 735 173 1262 741 1336 1437 17 159 7 463
-20 598 -65 327 -196 597 -396 818 -300 330 -671 515 -1155 576 -125 15 -468
17 -585 3z"/>
<path d="M15995 14474 c-871 -40 -1572 -305 -2165 -820 -243 -210 -558 -572
-701 -804 l-34 -55 -3 718 -2 717 -1687 0 -1686 0 7 -207 c27 -850 26 -3815
-2 -8801 -4 -618 -5 -1126 -3 -1128 2 -2 762 -4 1688 -4 l1683 0 0 2923 c0
1937 4 2962 11 3042 18 211 45 349 93 476 110 289 273 538 505 770 227 225
425 347 693 424 207 60 276 69 548 69 264 1 315 -5 510 -55 261 -68 473 -190
647 -373 250 -261 403 -605 488 -1096 51 -291 48 -131 52 -3262 l3 -2918 1691
0 1690 0 -4 3093 c-4 3264 -2 3159 -47 3592 -36 359 -125 797 -223 1110 -150
476 -355 876 -633 1235 -115 149 -446 480 -594 594 -488 376 -1019 604 -1634
702 -274 43 -661 68 -891 58z"/>
<path d="M4478 14218 c-2 -7 -3 -2288 -3 -5068 l0 -5055 1688 -3 1687 -2 -2
5067 -3 5068 -1681 3 c-1341 2 -1683 0 -1686 -10z"/>
</g>
</svg>
