<?xml version="1.0" standalone="no"?>
<!DOCTYPE svg PUBLIC "-//W3C//DTD SVG 20010904//EN"
 "http://www.w3.org/TR/2001/REC-SVG-20010904/DTD/svg10.dtd">
<svg version="1.0" xmlns="http://www.w3.org/2000/svg"
 width="640.000000pt" height="640.000000pt" viewBox="0 0 640.000000 640.000000"
 preserveAspectRatio="xMidYMid meet">

<g transform="translate(0.000000,640.000000) scale(0.100000,-0.100000)"
fill="#5b5d7a" stroke="none">
<path d="M601 4989 c-73 -22 -133 -73 -173 -149 l-23 -45 -3 -1580 c-3 -1760
-8 -1632 67 -1717 21 -24 60 -54 87 -68 l49 -25 2595 0 2595 0 45 23 c67 35
117 89 140 149 20 53 20 80 20 1622 0 1779 8 1625 -84 1717 -94 93 190 84
-2715 83 -1620 0 -2578 -4 -2600 -10z m1462 -705 c206 -53 377 -230 427 -442
16 -68 16 -215 0 -284 -32 -140 -138 -288 -264 -370 -168 -108 -421 -122 -600
-31 -152 77 -268 221 -312 386 -8 29 -14 100 -14 159 0 86 5 122 25 185 60
189 224 346 416 397 74 20 245 20 322 0z m3174 -300 c54 -41 68 -79 68 -189 0
-89 -3 -104 -23 -133 -52 -72 26 -67 -1089 -67 -996 0 -1002 0 -1029 21 -60
45 -69 66 -69 177 0 138 27 186 118 207 17 5 474 7 1014 7 981 -2 982 -2 1010
-23z m-376 -703 c13 -16 19 -39 19 -78 0 -67 -10 -88 -51 -102 -44 -15 -1643
-16 -1687 0 -38 13 -57 61 -48 124 7 44 27 69 61 78 11 3 395 4 853 3 l834 -1
19 -24z m-2824 -361 c31 -14 102 -76 234 -207 105 -103 200 -203 211 -221 26
-42 28 -120 5 -155 -35 -54 -188 -153 -302 -195 -142 -52 -347 -60 -508 -17
-128 33 -318 150 -352 215 -19 37 -19 103 -1 138 21 38 405 416 443 436 79 40
188 42 270 6z m2445 -38 c33 -33 33 -131 0 -164 l-23 -23 -637 -3 c-432 -2
-649 0 -674 8 -29 8 -39 18 -48 46 -23 70 3 144 55 157 11 3 309 4 662 3 l642
-1 23 -23z m187 -396 c17 -16 21 -31 21 -86 0 -115 75 -105 -774 -108 -499 -2
-743 0 -768 8 -29 8 -39 18 -48 46 -23 70 3 144 55 157 11 3 351 4 756 3 710
-1 738 -2 758 -20z"/>
</g>
</svg>
